<svg width="16" height="16" viewBox="0 0 16 16" fill="none" xmlns="http://www.w3.org/2000/svg">
<rect width="16" height="16" fill="#F7F5FF"/>
<path d="M10.9736 11.1993L9.72382 11.3605L9.38774 11.6318L9.22243 12.5542C9.28174 12.5422 9.33886 12.5313 9.39405 12.5213C9.37536 12.5043 9.36356 12.4936 9.36356 12.4936C9.36356 12.4936 9.38339 12.4024 9.48121 12.3459C9.57903 12.2894 10.4064 12.1161 10.4064 12.1161L10.4283 12.1005C10.4283 12.1005 10.9354 12.1807 10.8845 12.8907C10.8337 13.6007 10.9992 13.8704 10.9992 13.8704C11.1946 14.0438 11.452 13.9857 11.452 13.9857C11.452 13.9857 10.8376 13.8921 11.1677 12.7905C11.4978 11.6888 10.9736 11.1993 10.9736 11.1993Z" fill="#6B26D9"/>
<path d="M11.4736 7.74004C12.373 9.29775 11.8563 11.2798 10.3196 12.167C8.78285 13.0542 6.80805 12.5107 5.9087 10.953C5.00935 9.39522 5.52604 7.41324 7.06274 6.52603C8.59946 5.6388 10.5743 6.18231 11.4736 7.74004Z" fill="#6B26D9"/>
<path d="M11.0112 11.5828C9.36197 12.535 7.24257 11.9516 6.27738 10.2799C5.80323 9.4586 5.69607 8.52754 5.90503 7.67979C5.34013 8.65159 5.30036 9.89928 5.9087 10.953C6.80805 12.5107 8.78285 13.0542 10.3196 12.167C10.623 11.9918 10.8865 11.7738 11.1073 11.5249C11.0756 11.5446 11.0437 11.564 11.0112 11.5828Z" fill="#4D1D95"/>
<path d="M7.79088 6.60845C9.52371 6.30037 11.1815 7.4746 11.4939 9.23105C11.5405 9.49362 11.5543 9.75423 11.5385 10.0088C11.6068 9.6563 11.6127 9.28493 11.5459 8.90948C11.2582 7.29117 9.73082 6.20943 8.13438 6.49322C7.93133 6.52932 7.73697 6.58588 7.55291 6.66025C7.63093 6.64014 7.71029 6.62285 7.79088 6.60845Z" fill="#895AF6"/>
<path d="M10.8846 12.8911C10.9354 12.1811 10.4283 12.101 10.4283 12.101L10.4064 12.1165C10.4064 12.1165 9.57904 12.2899 9.48122 12.3464C9.3834 12.4028 9.36357 12.494 9.36357 12.494C9.36357 12.494 9.37538 12.5047 9.39406 12.5218C10.4276 12.335 10.7517 12.511 10.7848 13.299C10.7974 13.5995 10.8883 13.7724 10.9992 13.8708C10.9992 13.8708 10.8337 13.6011 10.8846 12.8911Z" fill="#4D1D95"/>
<path d="M6.51756 4.07645C6.26595 3.81139 6.26042 3.10141 6.5788 2.95614C6.89722 2.81096 7.03096 3.06959 7.03096 3.06959C7.03096 3.06959 7.01794 2.22618 7.48967 2.25199C7.96126 2.27776 7.85644 3.11472 7.85644 3.11472C7.85644 3.11472 8.01752 2.87221 8.31825 3.0513C8.61884 3.23036 8.53593 3.93554 8.25687 4.17157C8.25687 4.17157 9.65639 4.30618 7.33804 6.20626C7.3263 6.03695 7.29405 5.52252 7.28892 4.91032C7.37186 4.78643 7.62457 4.44592 8.00401 4.26268C8.00401 4.26268 7.59222 4.36104 7.28824 4.76544C7.28757 4.07444 7.32452 3.28777 7.46303 2.73813C7.46303 2.73813 7.31186 2.91199 7.22923 3.72949C7.16794 3.44962 7.04777 3.21244 7.04777 3.21244C7.14299 3.42961 7.19148 3.70108 7.21512 3.88377C7.17257 4.40186 7.1573 5.14432 7.21173 6.20187C5.1105 4.0576 6.51756 4.07645 6.51756 4.07645Z" fill="#61A531"/>
<path d="M5.49967 3.50396C5.50973 2.98133 4.83088 2.22625 4.35462 2.38002C3.87831 2.5337 3.98655 2.93577 3.98655 2.93577C3.98655 2.93577 3.18694 2.03261 2.71369 2.5147C2.24044 2.9968 3.15837 3.77948 3.15837 3.77948C3.15837 3.77948 2.75437 3.67875 2.60956 4.15787C2.4647 4.63691 3.23227 5.30157 3.75461 5.28182C3.75461 5.28182 2.40653 6.77352 6.68709 6.54423C6.53621 6.35408 6.0742 5.77981 5.48925 5.12842C5.28216 5.07756 4.68694 4.96166 4.10948 5.1341C4.10948 5.1341 4.63919 4.8408 5.35025 4.97476C4.68457 4.24441 3.88699 3.44931 3.21058 3.00241C3.21058 3.00241 3.53792 3.04026 4.41354 3.82384C4.20839 3.46924 4.10656 3.10278 4.10656 3.10278C4.21535 3.42405 4.42596 3.75754 4.57721 3.97317C5.12176 4.47921 5.85386 5.24852 6.81628 6.41791C6.96737 2.12713 5.49967 3.50396 5.49967 3.50396Z" fill="#80CC2A"/>
</svg>
